<svg width="56" height="56" viewBox="0 0 56 56" fill="none" xmlns="http://www.w3.org/2000/svg">
<path d="M52.3994 13.7813C52.2915 13.3333 52.0958 12.9112 51.8236 12.5394C51.5513 12.1676 51.208 11.8536 50.8134 11.6156C43.9319 7.45282 36.0426 5.25223 28 5.25223C19.9574 5.25223 12.068 7.45282 5.18655 11.6156C4.79314 11.8542 4.45063 12.168 4.17863 12.5391C3.90662 12.9102 3.71046 13.3313 3.60135 13.7783C3.49225 14.2253 3.47235 14.6894 3.54279 15.1441C3.61322 15.5988 3.77262 16.0351 4.01186 16.4281L25.0119 50.8309C25.3238 51.3453 25.7631 51.7705 26.2873 52.0656C26.8114 52.3607 27.4028 52.5157 28.0044 52.5157C28.6059 52.5157 29.1973 52.3607 29.7215 52.0656C30.2456 51.7705 30.6849 51.3453 30.9969 50.8309L51.9969 16.4281C52.2364 16.0358 52.3953 15.5996 52.4644 15.1452C52.5336 14.6907 52.5114 14.2271 52.3994 13.7813ZM13.9103 25.9219C14.4789 25.386 15.16 24.9838 15.9038 24.7446C16.6476 24.5054 17.4354 24.4353 18.2098 24.5393C18.9842 24.6433 19.7256 24.9189 20.3799 25.3458C21.0343 25.7728 21.5851 26.3405 21.9921 27.0074C22.3992 27.6743 22.6523 28.4236 22.7329 29.2008C22.8136 29.978 22.7197 30.7633 22.4582 31.4996C22.1967 32.2359 21.7742 32.9045 21.2214 33.4567C20.6687 34.0089 19.9996 34.4308 19.2631 34.6916L13.9103 25.9219ZM33.1428 40.5672C32.2664 39.7408 31.7009 38.6383 31.541 37.4444C31.3811 36.2505 31.6366 35.038 32.2646 34.0102C32.8927 32.9823 33.8551 32.2017 34.9903 31.7992C36.1256 31.3968 37.3648 31.3969 38.5 31.7997L33.1428 40.5672ZM40.3462 28.77C38.4011 27.8871 36.2002 27.7463 34.1585 28.374C32.1167 29.0017 30.375 30.3547 29.2619 32.1778C28.1487 34.0009 27.7408 36.1683 28.1152 38.2713C28.4896 40.3743 29.6204 42.2678 31.2944 43.5947L28 49L21.1094 37.7191C22.2406 37.2093 23.2506 36.4647 24.0721 35.5348C24.8936 34.6049 25.508 33.5109 25.8744 32.3254C26.2408 31.1399 26.3508 29.89 26.1973 28.6587C26.0437 27.4274 25.63 26.2428 24.9836 25.1837C24.3373 24.1245 23.473 23.2149 22.4483 22.5152C21.4235 21.8156 20.2616 21.3419 19.0398 21.1256C17.818 20.9093 16.5641 20.9553 15.3614 21.2607C14.1587 21.566 13.0347 22.1236 12.064 22.8966L10.675 20.6194C15.8922 17.4347 21.8864 15.7497 27.9989 15.7497C34.1114 15.7497 40.1055 17.4347 45.3228 20.6194L40.3462 28.77ZM47.1494 17.6291C41.3815 14.1112 34.756 12.2502 28 12.2502C21.244 12.2502 14.6185 14.1112 8.85061 17.6291L6.99999 14.6059C13.3355 10.777 20.5973 8.75303 28 8.75303C35.4027 8.75303 42.6645 10.777 49 14.6059L47.1494 17.6291Z" fill="white"/>
</svg>
