<svg width="56" height="56" viewBox="0 0 56 56" fill="none" xmlns="http://www.w3.org/2000/svg">
<path d="M47.25 15.75H7V10.5C7 10.0359 6.81563 9.59075 6.48744 9.26256C6.15925 8.93437 5.71413 8.75 5.25 8.75C4.78587 8.75 4.34075 8.93437 4.01256 9.26256C3.68437 9.59075 3.5 10.0359 3.5 10.5V45.5C3.5 45.9641 3.68437 46.4092 4.01256 46.7374C4.34075 47.0656 4.78587 47.25 5.25 47.25C5.71413 47.25 6.15925 47.0656 6.48744 46.7374C6.81563 46.4092 7 45.9641 7 45.5V38.5H52.5V45.5C52.5 45.9641 52.6844 46.4092 53.0126 46.7374C53.3408 47.0656 53.7859 47.25 54.25 47.25C54.7141 47.25 55.1592 47.0656 55.4874 46.7374C55.8156 46.4092 56 45.9641 56 45.5V24.5C56 22.1794 55.0781 19.9538 53.4372 18.3128C51.7962 16.6719 49.5706 15.75 47.25 15.75ZM7 19.25H22.75V35H7V19.25ZM26.25 35V19.25H47.25C48.6424 19.25 49.9777 19.8031 50.9623 20.7877C51.9469 21.7723 52.5 23.1076 52.5 24.5V35H26.25Z" fill="white"/>
</svg>
