<svg width="56" height="56" viewBox="0 0 56 56" fill="none" xmlns="http://www.w3.org/2000/svg">
<path d="M43.75 5.25H15.75C14.3576 5.25 13.0223 5.80312 12.0377 6.78769C11.0531 7.77226 10.5 9.10761 10.5 10.5V47.25C10.5 48.1783 10.8687 49.0685 11.5251 49.7249C12.1815 50.3812 13.0717 50.75 14 50.75H38.5C39.4283 50.75 40.3185 50.3812 40.9749 49.7249C41.6313 49.0685 42 48.1783 42 47.25V10.5C42 10.0359 42.1844 9.59075 42.5126 9.26256C42.8408 8.93437 43.2859 8.75 43.75 8.75C44.2141 8.75 44.6592 8.93437 44.9874 9.26256C45.3156 9.59075 45.5 10.0359 45.5 10.5V33.25C45.5 33.7141 45.6844 34.1593 46.0126 34.4874C46.3408 34.8156 46.7859 35 47.25 35C47.7141 35 48.1592 34.8156 48.4874 34.4874C48.8156 34.1593 49 33.7141 49 33.25V10.5C49 9.10761 48.4469 7.77226 47.4623 6.78769C46.4777 5.80312 45.1424 5.25 43.75 5.25ZM15.75 8.75H38.7997C38.6005 9.31191 38.4991 9.90382 38.5 10.5V40.25H14V10.5C14 10.0359 14.1844 9.59075 14.5126 9.26256C14.8408 8.93437 15.2859 8.75 15.75 8.75ZM14 47.25V43.75H38.5V47.25H14Z" fill="white"/>
</svg>
