<svg width="24" height="24" viewBox="0 0 24 24" fill="none" xmlns="http://www.w3.org/2000/svg">
<path d="M18.5008 15.4994C17.3977 15.4994 16.5007 16.3963 16.5007 17.4993C16.5007 18.6022 17.3977 19.4992 18.5008 19.4992C19.6038 19.4992 20.5009 18.6022 20.5009 17.4993C20.5009 16.3963 19.6038 15.4994 18.5008 15.4994ZM18.5008 18.4992C17.9497 18.4992 17.5007 18.0502 17.5007 17.4993C17.5007 16.9483 17.9497 16.4993 18.5008 16.4993C19.0518 16.4993 19.5008 16.9483 19.5008 17.4993C19.5008 18.0502 19.0518 18.4992 18.5008 18.4992ZM22.3889 13.6034C21.3499 12.5695 19.9698 11.9995 18.5008 11.9995C17.0317 11.9995 15.6507 12.5685 14.6116 13.6034C13.5726 14.6384 13.0005 16.0143 13.0005 17.4783C13.0005 18.9422 13.5726 20.3172 14.6266 21.3661L16.5977 23.179C17.1097 23.677 17.7857 23.951 18.5008 23.951C19.2158 23.951 19.8918 23.677 20.3928 23.189L22.3889 21.3521C23.428 20.3172 24 18.9412 24 17.4773C24 16.0133 23.428 14.6374 22.3889 13.6024V13.6034ZM21.6979 20.6301L19.7058 22.4631C19.0588 23.094 17.9537 23.104 17.2847 22.4531L15.3176 20.6431C14.4676 19.7972 14.0006 18.6732 14.0006 17.4773C14.0006 16.2813 14.4686 15.1574 15.3176 14.3114C16.1677 13.4654 17.2977 12.9995 18.5008 12.9995C19.7038 12.9995 20.8339 13.4654 21.6829 14.3114C22.5329 15.1574 23 16.2813 23 17.4773C23 18.6732 22.5319 19.7972 21.6969 20.6291L21.6979 20.6301ZM13.0005 23.5C13.0005 23.776 12.7765 24 12.5005 24H4.50019C2.01908 24 0 21.9811 0 19.5002V4.49981C0 2.01892 2.01908 0 4.50019 0H11.5005C13.9816 0 16.0007 2.01892 16.0007 4.49981V10.4996C16.0007 10.7756 15.7767 10.9995 15.5006 10.9995C15.2246 10.9995 15.0006 10.7756 15.0006 10.4996V4.49981C15.0006 2.56989 13.4306 0.999958 11.5005 0.999958H4.50019C2.57011 0.999958 1.00004 2.56989 1.00004 4.49981V19.4992C1.00004 21.4291 2.57011 22.999 4.50019 22.999H12.5005C12.7765 22.999 13.0005 23.224 13.0005 23.5ZM7.00029 13.5004C7.00029 13.7764 6.77628 14.0004 6.50027 14.0004H4.50019C4.22418 14.0004 4.00017 13.7764 4.00017 13.5004C4.00017 13.2244 4.22418 13.0005 4.50019 13.0005H6.50027C6.77628 13.0005 7.00029 13.2244 7.00029 13.5004ZM12.0005 13.5004C12.0005 13.7764 11.7765 14.0004 11.5005 14.0004H9.50039C9.22438 14.0004 9.00037 13.7764 9.00037 13.5004C9.00037 13.2244 9.22438 13.0005 9.50039 13.0005H11.5005C11.7765 13.0005 12.0005 13.2244 12.0005 13.5004ZM7.00029 17.5003C7.00029 17.7763 6.77628 18.0002 6.50027 18.0002H4.50019C4.22418 18.0002 4.00017 17.7763 4.00017 17.5003C4.00017 17.2243 4.22418 17.0003 4.50019 17.0003H6.50027C6.77628 17.0003 7.00029 17.2243 7.00029 17.5003ZM12.0005 17.5003C12.0005 17.7763 11.7765 18.0002 11.5005 18.0002H9.50039C9.22438 18.0002 9.00037 17.7763 9.00037 17.5003C9.00037 17.2243 9.22438 17.0003 9.50039 17.0003H11.5005C11.7765 17.0003 12.0005 17.2243 12.0005 17.5003ZM7.00029 5.49977C7.00029 5.77576 6.77628 5.99975 6.50027 5.99975H4.50019C4.22418 5.99975 4.00017 5.77576 4.00017 5.49977C4.00017 5.22378 4.22418 4.99979 4.50019 4.99979H6.50027C6.77628 4.99979 7.00029 5.22378 7.00029 5.49977ZM12.0005 5.49977C12.0005 5.77576 11.7765 5.99975 11.5005 5.99975H9.50039C9.22438 5.99975 9.00037 5.77576 9.00037 5.49977C9.00037 5.22378 9.22438 4.99979 9.50039 4.99979H11.5005C11.7765 4.99979 12.0005 5.22378 12.0005 5.49977ZM7.00029 9.4996C7.00029 9.77559 6.77628 9.99958 6.50027 9.99958H4.50019C4.22418 9.99958 4.00017 9.77559 4.00017 9.4996C4.00017 9.22362 4.22418 8.99963 4.50019 8.99963H6.50027C6.77628 8.99963 7.00029 9.22362 7.00029 9.4996ZM12.0005 9.4996C12.0005 9.77559 11.7765 9.99958 11.5005 9.99958H9.50039C9.22438 9.99958 9.00037 9.77559 9.00037 9.4996C9.00037 9.22362 9.22438 8.99963 9.50039 8.99963H11.5005C11.7765 8.99963 12.0005 9.22362 12.0005 9.4996Z" fill="#878585"/>
</svg>
